:FULLY-SPECIFIED
:FORCE-ALL-JOINTS-BE-3DOF
:DEGREES
918
root -0.0731804 14.1328 -36.1494 373.659 -25.9365 342.765
lfemur -66.5219 32.2846 -1.07853
ltibia 71.2197 0 0
lfoot -8.56836 -10.5563 0
ltoes -12.47 0 0
rfemur 7.72588 -7.70655 13.5989
rtibia 34.8738 0 0
rfoot -22.5612 -28.7777 0
rtoes -28.3336 0 0
lowerback 10.9926 -0.105393 7.18461
upperback -1.92742 1.30279 5.58073
thorax -8.24311 0.419356 1.69453
lowerneck -3.43372 7.59844 2.13883
upperneck 3.50752 10.0334 -0.238617
head 1.79128 5.03235 -0.163935
lclavicle -4.64469e-15 3.7295e-14 0
lhumerus 12.5953 3.03681 70.8488
lradius 16.0383 0 0
lwrist -41.3632 0 0
lhand -29.1913 29.6138 0
lfingers 7.12502 0 0
lthumb -2.53755 59.5933 0
rclavicle -4.64469e-15 3.7295e-14 0
rhumerus -77.2797 22.5961 -97.5691
rradius 110.216 0 0
rwrist -69.2099 0 0
rhand -11.5391 -24.2113 0
rfingers 7.12502 0 0
rthumb 14.5012 -53.6852 0
919
root -0.0574596 14.1237 -36.1331 373.693 -25.8571 342.676
lfemur -66.7392 32.417 -1.16052
ltibia 71.4737 0 0
lfoot -8.6862 -10.7072 0
ltoes -12.2748 0 0
rfemur 7.87532 -7.69681 13.5941
rtibia 34.7053 0 0
rfoot -22.5739 -28.7501 0
rtoes -28.4429 0 0
lowerback 10.95 -0.128672 7.24141
upperback -1.92688 1.28079 5.64152
thorax -8.21892 0.407764 1.73254
lowerneck -3.4214 7.59626 2.16461
upperneck 3.5346 10.0294 -0.243748
head 1.79983 5.03087 -0.169718
lclavicle -3.36298e-15 3.55882e-14 0
lhumerus 12.5131 2.10909 71.1727
lradius 16.1362 0 0
lwrist -40.6372 0 0
lhand -28.9552 29.5605 0
lfingers 7.12502 0 0
lthumb -2.30961 59.5433 0
rclavicle -3.36298e-15 3.55882e-14 0
rhumerus -77.3051 22.6324 -97.5809
rradius 110.192 0 0
rwrist -69.2409 0 0
rhand -11.5482 -24.2201 0
rfingers 7.12502 0 0
rthumb 14.4924 -53.6947 0
920
root -0.0422954 14.1145 -36.1174 373.721 -25.7843 342.59
lfemur -66.9469 32.545 -1.24025
ltibia 71.722 0 0
lfoot -8.79567 -10.8516 0
ltoes -12.067 0 0
rfemur 8.01633 -7.691 13.5854
rtibia 34.5533 0 0
rfoot -22.5877 -28.7201 0
rtoes -28.5525 0 0
lowerback 10.9087 -0.151542 7.29611
upperback -1.92512 1.25888 5.70277
thorax -8.19429 0.396333 1.77214
lowerneck -3.41065 7.59507 2.19167
upperneck 3.56572 10.0269 -0.251228
head 1.81026 5.03002 -0.176194
lclavicle -2.06371e-15 3.37221e-14 0
lhumerus 12.4194 1.10799 71.5027
lradius 16.2754 0 0
lwrist -39.8347 0 0
lhand -28.7154 29.5125 0
lfingers 7.12502 0 0
lthumb -2.07807 59.4984 0
rclavicle -2.06371e-15 3.37221e-14 0
rhumerus -77.3281 22.6645 -97.5879
rradius 110.168 0 0
rwrist -69.2658 0 0
rhand -11.5565 -24.2293 0
rfingers 7.12502 0 0
rthumb 14.4844 -53.7045 0
921
root -0.0277338 14.1053 -36.1023 373.745 -25.7185 342.509
lfemur -67.1444 32.6684 -1.31749
ltibia 71.9642 0 0
lfoot -8.89623 -10.9888 0
ltoes -11.8461 0 0
rfemur 8.14833 -7.68933 13.5727
rtibia 34.4188 0 0
rfoot -22.6025 -28.6873 0
rtoes -28.6624 0 0
lowerback 10.869 -0.173959 7.34852
upperback -1.92208 1.23708 5.76445
thorax -8.16925 0.38508 1.81339
lowerneck -3.40156 7.59492 2.22003
upperneck 3.60106 10.0258 -0.261165
head 1.82266 5.02985 -0.183388
lclavicle -7.48397e-16 3.16911e-14 0
lhumerus 12.3146 0.0311684 71.8378
lradius 16.4585 0 0
lwrist -38.9531 0 0
lhand -28.4721 29.4704 0
lfingers 7.12502 0 0
lthumb -1.84319 59.4591 0
rclavicle -7.48397e-16 3.16911e-14 0
rhumerus -77.3485 22.692 -97.59
rradius 110.146 0 0
rwrist -69.2843 0 0
rhand -11.5638 -24.239 0
rfingers 7.12502 0 0
rthumb 14.4774 -53.7147 0
922
root -0.013821 14.0961 -36.088 373.764 -25.6602 342.434
lfemur -67.3309 32.7867 -1.39205
ltibia 72.1996 0 0
lfoot -8.98733 -11.1183 0
ltoes -11.6119 0 0
rfemur 8.2707 -7.692 13.5557
rtibia 34.3028 0 0
rfoot -22.6182 -28.6518 0
rtoes -28.7724 0 0
lowerback 10.831 -0.19588 7.39846
upperback -1.9177 1.21542 5.82651
thorax -8.1438 0.374024 1.85632
lowerneck -3.39423 7.59588 2.24972
upperneck 3.64079 10.0263 -0.273668
head 1.83712 5.03038 -0.191326
lclavicle 5.81421e-16 2.94898e-14 0
lhumerus 12.1992 -1.12369 72.1774
lradius 16.6879 0 0
lwrist -37.9893 0 0
lhand -28.2257 29.4344 0
lfingers 7.12502 0 0
lthumb -1.60521 59.4257 0
rclavicle 5.81421e-16 2.94898e-14 0
rhumerus -77.3663 22.7147 -97.5869
rradius 110.126 0 0
rwrist -69.296 0 0
rhand -11.5701 -24.2492 0
rfingers 7.12502 0 0
rthumb 14.4713 -53.7253 0
923
root -0.00060281 14.0869 -36.0744 373.778 -25.6098 342.363
lfemur -67.5056 32.8996 -1.46372
ltibia 72.4276 0 0
lfoot -9.06843 -11.2396 0
ltoes -11.3639 0 0
rfemur 8.38286 -7.69922 13.5343
rtibia 34.2062 0 0
rfoot -22.6351 -28.6135 0
rtoes -28.8825 0 0
lowerback 10.7948 -0.217262 7.44573
upperback -1.91194 1.19393 5.88891
thorax -8.11797 0.363186 1.90099
lowerneck -3.38876 7.59799 2.28077
upperneck 3.6851 10.0284 -0.288845
head 1.85373 5.03165 -0.200034
lclavicle 1.92422e-15 2.71127e-14 0
lhumerus 12.0735 -2.35893 72.5206
lradius 16.9661 0 0
lwrist -36.9406 0 0
lhand -27.9763 29.405 0
lfingers 7.12502 0 0
lthumb -1.36438 59.3986 0
rclavicle 1.92422e-15 2.71127e-14 0
rhumerus -77.3811 22.7323 -97.5784
rradius 110.107 0 0
rwrist -69.3005 0 0
rhand -11.5753 -24.2598 0
rfingers 7.12502 0 0
rthumb 14.4663 -53.7363 0
